# xmcd CD database file
#
# Track frame offsets:
#	150
#	3168
#	124636
#	196898
#	269024
#
# Disc length: 4630 seconds
#
# Revision: 0
# Processed by: cddbd v1.5.2PL0 Copyright (c) Steve Scherf et al.
# Submitted via: CDex 1.51
#
DISCID=3b121405
DTITLE=Chet Baker - Live at the Subway Club CD1
DYEAR=1980
DGENRE=Jazz
TTITLE0=Intro
TTITLE1=No Ties
TTITLE2=In Your Own Sweet Way
TTITLE3=Old Devil Moon
TTITLE4=An Afternoon at Home
EXTD=YEAR: 1980
EXTT0=
EXTT1=
EXTT2=
EXTT3=
EXTT4=
PLAYORDER=
